<mxfile host="app.diagrams.net" agent="Mozilla/5.0 (Windows NT 10.0; Win64; x64) AppleWebKit/537.36 (KHTML, like Gecko) Chrome/124.0.0.0 Safari/537.36" version="24.7.4" pages="4">
  <diagram name="git分支使用规范" id="rskQGRMWnrVDxciy7Viz">
    <mxGraphModel dx="1195" dy="683" grid="1" gridSize="10" guides="1" tooltips="1" connect="1" arrows="1" fold="1" page="1" pageScale="1" pageWidth="827" pageHeight="1169" math="0" shadow="0">
      <root>
        <mxCell id="0" />
        <mxCell id="1" parent="0" />
        <mxCell id="04cMS3mD9hzl0nyuChfc-1" value="功能开发流程" style="swimlane;html=1;childLayout=stackLayout;resizeParent=1;resizeParentMax=0;horizontal=0;startSize=20;horizontalStack=0;fontSize=16;" parent="1" vertex="1">
          <mxGeometry x="20" y="20" width="720" height="440" as="geometry" />
        </mxCell>
        <mxCell id="04cMS3mD9hzl0nyuChfc-2" value="master" style="swimlane;html=1;startSize=20;horizontal=0;fontSize=16;" parent="04cMS3mD9hzl0nyuChfc-1" vertex="1">
          <mxGeometry x="20" width="700" height="120" as="geometry" />
        </mxCell>
        <mxCell id="04cMS3mD9hzl0nyuChfc-3" value="" style="edgeStyle=orthogonalEdgeStyle;rounded=0;orthogonalLoop=1;jettySize=auto;html=1;fontSize=16;" parent="04cMS3mD9hzl0nyuChfc-2" source="04cMS3mD9hzl0nyuChfc-4" target="04cMS3mD9hzl0nyuChfc-6" edge="1">
          <mxGeometry relative="1" as="geometry" />
        </mxCell>
        <mxCell id="04cMS3mD9hzl0nyuChfc-4" value="开始" style="ellipse;whiteSpace=wrap;html=1;fontSize=16;" parent="04cMS3mD9hzl0nyuChfc-2" vertex="1">
          <mxGeometry x="40" y="40" width="40" height="40" as="geometry" />
        </mxCell>
        <mxCell id="04cMS3mD9hzl0nyuChfc-6" value="最新代码" style="rounded=0;whiteSpace=wrap;html=1;fontFamily=Helvetica;fontSize=16;fontColor=#000000;align=center;" parent="04cMS3mD9hzl0nyuChfc-2" vertex="1">
          <mxGeometry x="130" y="30" width="350" height="60" as="geometry" />
        </mxCell>
        <mxCell id="04cMS3mD9hzl0nyuChfc-7" value="" style="edgeStyle=orthogonalEdgeStyle;rounded=0;orthogonalLoop=1;jettySize=auto;html=1;fontSize=16;" parent="04cMS3mD9hzl0nyuChfc-2" source="04cMS3mD9hzl0nyuChfc-8" target="04cMS3mD9hzl0nyuChfc-9" edge="1">
          <mxGeometry relative="1" as="geometry">
            <mxPoint x="570" y="60" as="targetPoint" />
          </mxGeometry>
        </mxCell>
        <mxCell id="04cMS3mD9hzl0nyuChfc-8" value="TAG-V1.0.1" style="rounded=0;whiteSpace=wrap;html=1;fontFamily=Helvetica;fontSize=16;fontColor=#000000;align=center;" parent="04cMS3mD9hzl0nyuChfc-2" vertex="1">
          <mxGeometry x="510" y="30" width="90" height="60" as="geometry" />
        </mxCell>
        <mxCell id="04cMS3mD9hzl0nyuChfc-9" value="结束" style="ellipse;whiteSpace=wrap;html=1;fontSize=16;" parent="04cMS3mD9hzl0nyuChfc-2" vertex="1">
          <mxGeometry x="630" y="40" width="40" height="40" as="geometry" />
        </mxCell>
        <mxCell id="04cMS3mD9hzl0nyuChfc-10" style="edgeStyle=orthogonalEdgeStyle;rounded=0;orthogonalLoop=1;jettySize=auto;html=1;fontSize=16;exitX=1;exitY=0.5;exitDx=0;exitDy=0;" parent="04cMS3mD9hzl0nyuChfc-2" target="04cMS3mD9hzl0nyuChfc-8" edge="1" source="04cMS3mD9hzl0nyuChfc-6">
          <mxGeometry relative="1" as="geometry">
            <mxPoint x="320" y="60" as="sourcePoint" />
          </mxGeometry>
        </mxCell>
        <mxCell id="04cMS3mD9hzl0nyuChfc-12" value="develop" style="swimlane;html=1;startSize=20;horizontal=0;fontSize=16;" parent="04cMS3mD9hzl0nyuChfc-1" vertex="1">
          <mxGeometry x="20" y="120" width="700" height="100" as="geometry" />
        </mxCell>
        <mxCell id="04cMS3mD9hzl0nyuChfc-13" style="edgeStyle=orthogonalEdgeStyle;rounded=0;orthogonalLoop=1;jettySize=auto;html=1;fontSize=16;" parent="04cMS3mD9hzl0nyuChfc-12" source="04cMS3mD9hzl0nyuChfc-14" target="04cMS3mD9hzl0nyuChfc-15" edge="1">
          <mxGeometry relative="1" as="geometry" />
        </mxCell>
        <mxCell id="04cMS3mD9hzl0nyuChfc-14" value="develop-v1.0.1" style="rounded=0;whiteSpace=wrap;html=1;fontFamily=Helvetica;fontSize=16;fontColor=#000000;align=center;" parent="04cMS3mD9hzl0nyuChfc-12" vertex="1">
          <mxGeometry x="130" y="30" width="80" height="60" as="geometry" />
        </mxCell>
        <mxCell id="04cMS3mD9hzl0nyuChfc-15" value="开发完成" style="rounded=0;whiteSpace=wrap;html=1;fontFamily=Helvetica;fontSize=16;fontColor=#000000;align=center;" parent="04cMS3mD9hzl0nyuChfc-12" vertex="1">
          <mxGeometry x="270" y="30" width="80" height="60" as="geometry" />
        </mxCell>
        <mxCell id="04cMS3mD9hzl0nyuChfc-16" value="release" style="swimlane;html=1;startSize=20;horizontal=0;fontSize=16;" parent="04cMS3mD9hzl0nyuChfc-1" vertex="1">
          <mxGeometry x="20" y="220" width="700" height="220" as="geometry" />
        </mxCell>
        <mxCell id="04cMS3mD9hzl0nyuChfc-17" value="release-v1.0.1" style="rounded=0;whiteSpace=wrap;html=1;fontFamily=Helvetica;fontSize=16;fontColor=#000000;align=center;" parent="04cMS3mD9hzl0nyuChfc-16" vertex="1">
          <mxGeometry x="240" y="116" width="140" height="60" as="geometry" />
        </mxCell>
        <mxCell id="04cMS3mD9hzl0nyuChfc-18" value="测试通过" style="rhombus;whiteSpace=wrap;html=1;fontColor=#000000;rounded=0;fontSize=16;" parent="04cMS3mD9hzl0nyuChfc-16" vertex="1">
          <mxGeometry x="419" y="106" width="80" height="80" as="geometry" />
        </mxCell>
        <mxCell id="04cMS3mD9hzl0nyuChfc-19" value="" style="edgeStyle=orthogonalEdgeStyle;rounded=0;orthogonalLoop=1;jettySize=auto;html=1;fontSize=16;" parent="04cMS3mD9hzl0nyuChfc-16" source="04cMS3mD9hzl0nyuChfc-17" target="04cMS3mD9hzl0nyuChfc-18" edge="1">
          <mxGeometry relative="1" as="geometry" />
        </mxCell>
        <mxCell id="04cMS3mD9hzl0nyuChfc-22" value="上线" style="rounded=0;whiteSpace=wrap;html=1;fontFamily=Helvetica;fontSize=16;fontColor=#000000;align=center;" parent="04cMS3mD9hzl0nyuChfc-16" vertex="1">
          <mxGeometry x="419" y="30" width="80" height="40" as="geometry" />
        </mxCell>
        <mxCell id="04cMS3mD9hzl0nyuChfc-23" style="edgeStyle=orthogonalEdgeStyle;rounded=0;orthogonalLoop=1;jettySize=auto;html=1;fontSize=16;" parent="04cMS3mD9hzl0nyuChfc-16" source="04cMS3mD9hzl0nyuChfc-18" target="04cMS3mD9hzl0nyuChfc-22" edge="1">
          <mxGeometry relative="1" as="geometry">
            <mxPoint x="535" y="60" as="targetPoint" />
          </mxGeometry>
        </mxCell>
        <mxCell id="04cMS3mD9hzl0nyuChfc-24" value="Y" style="edgeLabel;html=1;align=center;verticalAlign=middle;resizable=0;points=[];fontSize=16;" parent="04cMS3mD9hzl0nyuChfc-23" connectable="0" vertex="1">
          <mxGeometry x="-0.3529" y="1" relative="1" as="geometry">
            <mxPoint x="-9" y="1" as="offset" />
          </mxGeometry>
        </mxCell>
        <mxCell id="04cMS3mD9hzl0nyuChfc-25" style="edgeStyle=orthogonalEdgeStyle;rounded=0;orthogonalLoop=1;jettySize=auto;html=1;entryX=0.5;entryY=0;entryDx=0;entryDy=0;fontSize=16;" parent="04cMS3mD9hzl0nyuChfc-1" target="04cMS3mD9hzl0nyuChfc-14" edge="1">
          <mxGeometry relative="1" as="geometry">
            <mxPoint x="190" y="90" as="sourcePoint" />
          </mxGeometry>
        </mxCell>
        <mxCell id="04cMS3mD9hzl0nyuChfc-26" value="&lt;span style=&quot;background-color: rgb(248, 249, 250);&quot;&gt;创建分支&lt;/span&gt;" style="edgeLabel;html=1;align=center;verticalAlign=middle;resizable=0;points=[];fontSize=16;" parent="04cMS3mD9hzl0nyuChfc-25" connectable="0" vertex="1">
          <mxGeometry x="-0.4237" relative="1" as="geometry">
            <mxPoint as="offset" />
          </mxGeometry>
        </mxCell>
        <mxCell id="04cMS3mD9hzl0nyuChfc-27" style="edgeStyle=orthogonalEdgeStyle;rounded=0;orthogonalLoop=1;jettySize=auto;html=1;fontSize=16;exitX=0.5;exitY=1;exitDx=0;exitDy=0;" parent="04cMS3mD9hzl0nyuChfc-1" source="04cMS3mD9hzl0nyuChfc-15" target="04cMS3mD9hzl0nyuChfc-17" edge="1">
          <mxGeometry relative="1" as="geometry">
            <mxPoint x="440" y="300" as="targetPoint" />
          </mxGeometry>
        </mxCell>
        <mxCell id="04cMS3mD9hzl0nyuChfc-28" value="创建或合并到" style="edgeLabel;html=1;align=center;verticalAlign=middle;resizable=0;points=[];fontSize=16;" parent="04cMS3mD9hzl0nyuChfc-27" connectable="0" vertex="1">
          <mxGeometry x="0.2255" relative="1" as="geometry">
            <mxPoint y="-3" as="offset" />
          </mxGeometry>
        </mxCell>
        <mxCell id="04cMS3mD9hzl0nyuChfc-20" style="edgeStyle=orthogonalEdgeStyle;rounded=0;orthogonalLoop=1;jettySize=auto;html=1;entryX=0.5;entryY=1;entryDx=0;entryDy=0;exitX=0.5;exitY=1;exitDx=0;exitDy=0;fontSize=16;" parent="04cMS3mD9hzl0nyuChfc-1" source="04cMS3mD9hzl0nyuChfc-18" target="04cMS3mD9hzl0nyuChfc-14" edge="1">
          <mxGeometry relative="1" as="geometry" />
        </mxCell>
        <mxCell id="04cMS3mD9hzl0nyuChfc-21" value="N" style="edgeLabel;html=1;align=center;verticalAlign=middle;resizable=0;points=[];fontSize=16;" parent="04cMS3mD9hzl0nyuChfc-20" connectable="0" vertex="1">
          <mxGeometry x="-0.3455" relative="1" as="geometry">
            <mxPoint as="offset" />
          </mxGeometry>
        </mxCell>
        <mxCell id="0sexW5r8pKoeQbQU0YzO-3" style="edgeStyle=orthogonalEdgeStyle;rounded=0;orthogonalLoop=1;jettySize=auto;html=1;exitX=0.5;exitY=0;exitDx=0;exitDy=0;entryX=0.939;entryY=1.021;entryDx=0;entryDy=0;entryPerimeter=0;" edge="1" parent="04cMS3mD9hzl0nyuChfc-1" source="04cMS3mD9hzl0nyuChfc-22" target="04cMS3mD9hzl0nyuChfc-6">
          <mxGeometry relative="1" as="geometry" />
        </mxCell>
        <mxCell id="04cMS3mD9hzl0nyuChfc-33" value="bug修复流程" style="swimlane;html=1;childLayout=stackLayout;resizeParent=1;resizeParentMax=0;horizontal=0;startSize=20;horizontalStack=0;fontSize=16;fontStyle=0;fontColor=#FF3333;" parent="1" vertex="1">
          <mxGeometry x="20" y="1000" width="720" height="440" as="geometry" />
        </mxCell>
        <mxCell id="04cMS3mD9hzl0nyuChfc-34" value="master" style="swimlane;html=1;startSize=20;horizontal=0;fontSize=16;fontStyle=0;fontColor=#FF3333;" parent="04cMS3mD9hzl0nyuChfc-33" vertex="1">
          <mxGeometry x="20" width="700" height="120" as="geometry" />
        </mxCell>
        <mxCell id="04cMS3mD9hzl0nyuChfc-35" value="" style="edgeStyle=orthogonalEdgeStyle;rounded=0;orthogonalLoop=1;jettySize=auto;html=1;fontSize=16;fontStyle=0;fontColor=#FF3333;" parent="04cMS3mD9hzl0nyuChfc-34" source="04cMS3mD9hzl0nyuChfc-36" target="04cMS3mD9hzl0nyuChfc-38" edge="1">
          <mxGeometry relative="1" as="geometry" />
        </mxCell>
        <mxCell id="04cMS3mD9hzl0nyuChfc-36" value="开始" style="ellipse;whiteSpace=wrap;html=1;fontSize=16;fontStyle=0;fontColor=#FF3333;" parent="04cMS3mD9hzl0nyuChfc-34" vertex="1">
          <mxGeometry x="40" y="40" width="40" height="40" as="geometry" />
        </mxCell>
        <mxCell id="04cMS3mD9hzl0nyuChfc-38" value="最新代码" style="rounded=0;whiteSpace=wrap;html=1;fontFamily=Helvetica;fontSize=16;fontColor=#FF3333;align=center;fontStyle=0" parent="04cMS3mD9hzl0nyuChfc-34" vertex="1">
          <mxGeometry x="130" y="30" width="190" height="60" as="geometry" />
        </mxCell>
        <mxCell id="04cMS3mD9hzl0nyuChfc-39" value="" style="edgeStyle=orthogonalEdgeStyle;rounded=0;orthogonalLoop=1;jettySize=auto;html=1;fontSize=16;fontStyle=0;fontColor=#FF3333;" parent="04cMS3mD9hzl0nyuChfc-34" source="04cMS3mD9hzl0nyuChfc-40" target="04cMS3mD9hzl0nyuChfc-41" edge="1">
          <mxGeometry relative="1" as="geometry">
            <mxPoint x="570" y="60" as="targetPoint" />
          </mxGeometry>
        </mxCell>
        <mxCell id="04cMS3mD9hzl0nyuChfc-40" value="打TAG：V1.0.2" style="rounded=0;whiteSpace=wrap;html=1;fontFamily=Helvetica;fontSize=16;fontColor=#FF3333;align=center;fontStyle=0" parent="04cMS3mD9hzl0nyuChfc-34" vertex="1">
          <mxGeometry x="470" y="30" width="130" height="60" as="geometry" />
        </mxCell>
        <mxCell id="04cMS3mD9hzl0nyuChfc-41" value="结束" style="ellipse;whiteSpace=wrap;html=1;fontSize=16;fontStyle=0;fontColor=#FF3333;" parent="04cMS3mD9hzl0nyuChfc-34" vertex="1">
          <mxGeometry x="630" y="40" width="40" height="40" as="geometry" />
        </mxCell>
        <mxCell id="04cMS3mD9hzl0nyuChfc-42" style="edgeStyle=orthogonalEdgeStyle;rounded=0;orthogonalLoop=1;jettySize=auto;html=1;fontSize=16;fontStyle=0;fontColor=#FF3333;" parent="04cMS3mD9hzl0nyuChfc-34" target="04cMS3mD9hzl0nyuChfc-40" edge="1">
          <mxGeometry relative="1" as="geometry">
            <mxPoint x="320" y="60" as="sourcePoint" />
          </mxGeometry>
        </mxCell>
        <mxCell id="04cMS3mD9hzl0nyuChfc-44" value="hotfix" style="swimlane;html=1;startSize=20;horizontal=0;fontSize=16;fontStyle=0;fontColor=#FF3333;" parent="04cMS3mD9hzl0nyuChfc-33" vertex="1">
          <mxGeometry x="20" y="120" width="700" height="100" as="geometry" />
        </mxCell>
        <mxCell id="04cMS3mD9hzl0nyuChfc-45" style="edgeStyle=orthogonalEdgeStyle;rounded=0;orthogonalLoop=1;jettySize=auto;html=1;fontSize=16;fontStyle=0;fontColor=#FF3333;" parent="04cMS3mD9hzl0nyuChfc-44" source="04cMS3mD9hzl0nyuChfc-46" target="04cMS3mD9hzl0nyuChfc-47" edge="1">
          <mxGeometry relative="1" as="geometry" />
        </mxCell>
        <mxCell id="04cMS3mD9hzl0nyuChfc-46" value="hotfix-v1.0.2" style="rounded=0;whiteSpace=wrap;html=1;fontFamily=Helvetica;fontSize=16;fontColor=#FF3333;align=center;fontStyle=0" parent="04cMS3mD9hzl0nyuChfc-44" vertex="1">
          <mxGeometry x="100" y="30" width="140" height="60" as="geometry" />
        </mxCell>
        <mxCell id="04cMS3mD9hzl0nyuChfc-47" value="开发完成" style="rounded=0;whiteSpace=wrap;html=1;fontFamily=Helvetica;fontSize=16;fontColor=#FF3333;align=center;fontStyle=0" parent="04cMS3mD9hzl0nyuChfc-44" vertex="1">
          <mxGeometry x="380" y="30" width="80" height="60" as="geometry" />
        </mxCell>
        <mxCell id="04cMS3mD9hzl0nyuChfc-48" value="release" style="swimlane;html=1;startSize=20;horizontal=0;fontSize=16;fontStyle=0;fontColor=#FF3333;" parent="04cMS3mD9hzl0nyuChfc-33" vertex="1">
          <mxGeometry x="20" y="220" width="700" height="220" as="geometry" />
        </mxCell>
        <mxCell id="04cMS3mD9hzl0nyuChfc-49" value="release-v1.0.2" style="rounded=0;whiteSpace=wrap;html=1;fontFamily=Helvetica;fontSize=16;fontColor=#FF3333;align=center;fontStyle=0" parent="04cMS3mD9hzl0nyuChfc-48" vertex="1">
          <mxGeometry x="180" y="116" width="260" height="60" as="geometry" />
        </mxCell>
        <mxCell id="04cMS3mD9hzl0nyuChfc-50" value="测试通过" style="rhombus;whiteSpace=wrap;html=1;fontColor=#FF3333;rounded=0;fontSize=16;fontStyle=0" parent="04cMS3mD9hzl0nyuChfc-48" vertex="1">
          <mxGeometry x="495" y="106" width="80" height="80" as="geometry" />
        </mxCell>
        <mxCell id="04cMS3mD9hzl0nyuChfc-51" value="" style="edgeStyle=orthogonalEdgeStyle;rounded=0;orthogonalLoop=1;jettySize=auto;html=1;fontSize=16;fontStyle=0;fontColor=#FF3333;" parent="04cMS3mD9hzl0nyuChfc-48" source="04cMS3mD9hzl0nyuChfc-49" target="04cMS3mD9hzl0nyuChfc-50" edge="1">
          <mxGeometry relative="1" as="geometry" />
        </mxCell>
        <mxCell id="04cMS3mD9hzl0nyuChfc-54" value="上线" style="rounded=0;whiteSpace=wrap;html=1;fontFamily=Helvetica;fontSize=16;fontColor=#FF3333;align=center;fontStyle=0" parent="04cMS3mD9hzl0nyuChfc-48" vertex="1">
          <mxGeometry x="495" y="30" width="80" height="40" as="geometry" />
        </mxCell>
        <mxCell id="04cMS3mD9hzl0nyuChfc-55" style="edgeStyle=orthogonalEdgeStyle;rounded=0;orthogonalLoop=1;jettySize=auto;html=1;fontSize=16;fontStyle=0;fontColor=#FF3333;" parent="04cMS3mD9hzl0nyuChfc-48" source="04cMS3mD9hzl0nyuChfc-50" target="04cMS3mD9hzl0nyuChfc-54" edge="1">
          <mxGeometry relative="1" as="geometry">
            <mxPoint x="535" y="60" as="targetPoint" />
          </mxGeometry>
        </mxCell>
        <mxCell id="04cMS3mD9hzl0nyuChfc-56" value="Y" style="edgeLabel;html=1;align=center;verticalAlign=middle;resizable=0;points=[];fontSize=16;fontStyle=0;fontColor=#FF3333;" parent="04cMS3mD9hzl0nyuChfc-55" connectable="0" vertex="1">
          <mxGeometry x="-0.3529" y="1" relative="1" as="geometry">
            <mxPoint x="-9" y="1" as="offset" />
          </mxGeometry>
        </mxCell>
        <mxCell id="04cMS3mD9hzl0nyuChfc-57" style="edgeStyle=orthogonalEdgeStyle;rounded=0;orthogonalLoop=1;jettySize=auto;html=1;entryX=0.5;entryY=0;entryDx=0;entryDy=0;fontSize=16;exitX=0.211;exitY=0.988;exitDx=0;exitDy=0;exitPerimeter=0;fontStyle=0;fontColor=#FF3333;" parent="04cMS3mD9hzl0nyuChfc-33" source="04cMS3mD9hzl0nyuChfc-38" target="04cMS3mD9hzl0nyuChfc-46" edge="1">
          <mxGeometry relative="1" as="geometry" />
        </mxCell>
        <mxCell id="04cMS3mD9hzl0nyuChfc-58" value="&lt;span style=&quot;background-color: rgb(248, 249, 250);&quot;&gt;创建分支&lt;/span&gt;" style="edgeLabel;html=1;align=center;verticalAlign=middle;resizable=0;points=[];fontSize=16;fontStyle=0;fontColor=#FF3333;" parent="04cMS3mD9hzl0nyuChfc-57" connectable="0" vertex="1">
          <mxGeometry x="-0.4237" relative="1" as="geometry">
            <mxPoint as="offset" />
          </mxGeometry>
        </mxCell>
        <mxCell id="04cMS3mD9hzl0nyuChfc-59" style="edgeStyle=orthogonalEdgeStyle;rounded=0;orthogonalLoop=1;jettySize=auto;html=1;fontSize=16;exitX=0.5;exitY=1;exitDx=0;exitDy=0;entryX=0.925;entryY=0.01;entryDx=0;entryDy=0;entryPerimeter=0;fontStyle=0;fontColor=#FF3333;" parent="04cMS3mD9hzl0nyuChfc-33" source="04cMS3mD9hzl0nyuChfc-47" target="04cMS3mD9hzl0nyuChfc-49" edge="1">
          <mxGeometry relative="1" as="geometry">
            <mxPoint x="440" y="300" as="targetPoint" />
          </mxGeometry>
        </mxCell>
        <mxCell id="04cMS3mD9hzl0nyuChfc-60" value="合并到" style="edgeLabel;html=1;align=center;verticalAlign=middle;resizable=0;points=[];fontSize=16;fontStyle=0;fontColor=#FF3333;" parent="04cMS3mD9hzl0nyuChfc-59" connectable="0" vertex="1">
          <mxGeometry x="0.2255" relative="1" as="geometry">
            <mxPoint y="-3" as="offset" />
          </mxGeometry>
        </mxCell>
        <mxCell id="04cMS3mD9hzl0nyuChfc-61" style="edgeStyle=orthogonalEdgeStyle;rounded=0;orthogonalLoop=1;jettySize=auto;html=1;fontSize=16;entryX=0.384;entryY=0.003;entryDx=0;entryDy=0;entryPerimeter=0;exitX=0.79;exitY=1.001;exitDx=0;exitDy=0;exitPerimeter=0;fontStyle=0;fontColor=#FF3333;" parent="04cMS3mD9hzl0nyuChfc-33" source="04cMS3mD9hzl0nyuChfc-38" target="04cMS3mD9hzl0nyuChfc-49" edge="1">
          <mxGeometry relative="1" as="geometry">
            <mxPoint x="300" y="310" as="targetPoint" />
            <mxPoint x="300.02857142857147" y="90" as="sourcePoint" />
          </mxGeometry>
        </mxCell>
        <mxCell id="04cMS3mD9hzl0nyuChfc-62" value="创建分支" style="edgeLabel;html=1;align=center;verticalAlign=middle;resizable=0;points=[];fontSize=16;fontStyle=0;fontColor=#FF3333;" parent="04cMS3mD9hzl0nyuChfc-61" connectable="0" vertex="1">
          <mxGeometry x="-0.8825" y="1" relative="1" as="geometry">
            <mxPoint x="-1" y="181" as="offset" />
          </mxGeometry>
        </mxCell>
        <mxCell id="04cMS3mD9hzl0nyuChfc-63" style="edgeStyle=orthogonalEdgeStyle;rounded=0;orthogonalLoop=1;jettySize=auto;html=1;fontSize=16;fontStyle=0;fontColor=#FF3333;" parent="04cMS3mD9hzl0nyuChfc-33" source="04cMS3mD9hzl0nyuChfc-54" edge="1">
          <mxGeometry relative="1" as="geometry">
            <mxPoint x="340" y="75" as="targetPoint" />
            <Array as="points">
              <mxPoint x="555" y="130" />
              <mxPoint x="410" y="130" />
              <mxPoint x="410" y="75" />
            </Array>
          </mxGeometry>
        </mxCell>
        <mxCell id="04cMS3mD9hzl0nyuChfc-64" value="合并到" style="edgeLabel;html=1;align=center;verticalAlign=middle;resizable=0;points=[];fontSize=16;fontStyle=0;fontColor=#FF3333;" parent="04cMS3mD9hzl0nyuChfc-63" connectable="0" vertex="1">
          <mxGeometry x="0.0792" relative="1" as="geometry">
            <mxPoint x="91" y="40" as="offset" />
          </mxGeometry>
        </mxCell>
        <mxCell id="04cMS3mD9hzl0nyuChfc-52" style="edgeStyle=orthogonalEdgeStyle;rounded=0;orthogonalLoop=1;jettySize=auto;html=1;exitX=0.5;exitY=1;exitDx=0;exitDy=0;fontSize=16;fontStyle=0;fontColor=#FF3333;" parent="04cMS3mD9hzl0nyuChfc-33" source="04cMS3mD9hzl0nyuChfc-50" target="04cMS3mD9hzl0nyuChfc-46" edge="1">
          <mxGeometry relative="1" as="geometry" />
        </mxCell>
        <mxCell id="04cMS3mD9hzl0nyuChfc-53" value="N" style="edgeLabel;html=1;align=center;verticalAlign=middle;resizable=0;points=[];fontSize=16;fontStyle=0;fontColor=#FF3333;" parent="04cMS3mD9hzl0nyuChfc-52" connectable="0" vertex="1">
          <mxGeometry x="-0.3455" relative="1" as="geometry">
            <mxPoint as="offset" />
          </mxGeometry>
        </mxCell>
        <mxCell id="0sexW5r8pKoeQbQU0YzO-31" value="bug修复流程" style="swimlane;html=1;childLayout=stackLayout;resizeParent=1;resizeParentMax=0;horizontal=0;startSize=20;horizontalStack=0;fontSize=16;" vertex="1" parent="1">
          <mxGeometry x="20" y="520" width="720" height="440" as="geometry" />
        </mxCell>
        <mxCell id="0sexW5r8pKoeQbQU0YzO-32" value="master" style="swimlane;html=1;startSize=20;horizontal=0;fontSize=16;" vertex="1" parent="0sexW5r8pKoeQbQU0YzO-31">
          <mxGeometry x="20" width="700" height="120" as="geometry" />
        </mxCell>
        <mxCell id="0sexW5r8pKoeQbQU0YzO-33" value="" style="edgeStyle=orthogonalEdgeStyle;rounded=0;orthogonalLoop=1;jettySize=auto;html=1;fontSize=16;" edge="1" parent="0sexW5r8pKoeQbQU0YzO-32" source="0sexW5r8pKoeQbQU0YzO-34" target="0sexW5r8pKoeQbQU0YzO-35">
          <mxGeometry relative="1" as="geometry" />
        </mxCell>
        <mxCell id="0sexW5r8pKoeQbQU0YzO-34" value="开始" style="ellipse;whiteSpace=wrap;html=1;fontSize=16;" vertex="1" parent="0sexW5r8pKoeQbQU0YzO-32">
          <mxGeometry x="40" y="40" width="40" height="40" as="geometry" />
        </mxCell>
        <mxCell id="0sexW5r8pKoeQbQU0YzO-35" value="最新代码" style="rounded=0;whiteSpace=wrap;html=1;fontFamily=Helvetica;fontSize=16;fontColor=#000000;align=center;" vertex="1" parent="0sexW5r8pKoeQbQU0YzO-32">
          <mxGeometry x="130" y="30" width="350" height="60" as="geometry" />
        </mxCell>
        <mxCell id="0sexW5r8pKoeQbQU0YzO-36" value="" style="edgeStyle=orthogonalEdgeStyle;rounded=0;orthogonalLoop=1;jettySize=auto;html=1;fontSize=16;" edge="1" parent="0sexW5r8pKoeQbQU0YzO-32" source="0sexW5r8pKoeQbQU0YzO-37" target="0sexW5r8pKoeQbQU0YzO-38">
          <mxGeometry relative="1" as="geometry">
            <mxPoint x="570" y="60" as="targetPoint" />
          </mxGeometry>
        </mxCell>
        <mxCell id="0sexW5r8pKoeQbQU0YzO-37" value="TAG-V1.0.1" style="rounded=0;whiteSpace=wrap;html=1;fontFamily=Helvetica;fontSize=16;fontColor=#000000;align=center;" vertex="1" parent="0sexW5r8pKoeQbQU0YzO-32">
          <mxGeometry x="510" y="30" width="90" height="60" as="geometry" />
        </mxCell>
        <mxCell id="0sexW5r8pKoeQbQU0YzO-38" value="结束" style="ellipse;whiteSpace=wrap;html=1;fontSize=16;" vertex="1" parent="0sexW5r8pKoeQbQU0YzO-32">
          <mxGeometry x="630" y="40" width="40" height="40" as="geometry" />
        </mxCell>
        <mxCell id="0sexW5r8pKoeQbQU0YzO-39" style="edgeStyle=orthogonalEdgeStyle;rounded=0;orthogonalLoop=1;jettySize=auto;html=1;fontSize=16;exitX=1;exitY=0.5;exitDx=0;exitDy=0;" edge="1" parent="0sexW5r8pKoeQbQU0YzO-32" source="0sexW5r8pKoeQbQU0YzO-35" target="0sexW5r8pKoeQbQU0YzO-37">
          <mxGeometry relative="1" as="geometry">
            <mxPoint x="320" y="60" as="sourcePoint" />
          </mxGeometry>
        </mxCell>
        <mxCell id="0sexW5r8pKoeQbQU0YzO-40" value="hotfix" style="swimlane;html=1;startSize=20;horizontal=0;fontSize=16;" vertex="1" parent="0sexW5r8pKoeQbQU0YzO-31">
          <mxGeometry x="20" y="120" width="700" height="100" as="geometry" />
        </mxCell>
        <mxCell id="0sexW5r8pKoeQbQU0YzO-41" style="edgeStyle=orthogonalEdgeStyle;rounded=0;orthogonalLoop=1;jettySize=auto;html=1;fontSize=16;" edge="1" parent="0sexW5r8pKoeQbQU0YzO-40" source="0sexW5r8pKoeQbQU0YzO-42" target="0sexW5r8pKoeQbQU0YzO-43">
          <mxGeometry relative="1" as="geometry" />
        </mxCell>
        <mxCell id="0sexW5r8pKoeQbQU0YzO-42" value="hotfix-v1.0.1" style="rounded=0;whiteSpace=wrap;html=1;fontFamily=Helvetica;fontSize=16;fontColor=#000000;align=center;" vertex="1" parent="0sexW5r8pKoeQbQU0YzO-40">
          <mxGeometry x="130" y="30" width="80" height="60" as="geometry" />
        </mxCell>
        <mxCell id="0sexW5r8pKoeQbQU0YzO-43" value="开发完成" style="rounded=0;whiteSpace=wrap;html=1;fontFamily=Helvetica;fontSize=16;fontColor=#000000;align=center;" vertex="1" parent="0sexW5r8pKoeQbQU0YzO-40">
          <mxGeometry x="270" y="30" width="80" height="60" as="geometry" />
        </mxCell>
        <mxCell id="0sexW5r8pKoeQbQU0YzO-44" value="release" style="swimlane;html=1;startSize=20;horizontal=0;fontSize=16;" vertex="1" parent="0sexW5r8pKoeQbQU0YzO-31">
          <mxGeometry x="20" y="220" width="700" height="220" as="geometry" />
        </mxCell>
        <mxCell id="0sexW5r8pKoeQbQU0YzO-45" value="release-v1.0.1" style="rounded=0;whiteSpace=wrap;html=1;fontFamily=Helvetica;fontSize=16;fontColor=#000000;align=center;" vertex="1" parent="0sexW5r8pKoeQbQU0YzO-44">
          <mxGeometry x="240" y="116" width="140" height="60" as="geometry" />
        </mxCell>
        <mxCell id="0sexW5r8pKoeQbQU0YzO-46" value="测试通过" style="rhombus;whiteSpace=wrap;html=1;fontColor=#000000;rounded=0;fontSize=16;" vertex="1" parent="0sexW5r8pKoeQbQU0YzO-44">
          <mxGeometry x="419" y="106" width="80" height="80" as="geometry" />
        </mxCell>
        <mxCell id="0sexW5r8pKoeQbQU0YzO-47" value="" style="edgeStyle=orthogonalEdgeStyle;rounded=0;orthogonalLoop=1;jettySize=auto;html=1;fontSize=16;" edge="1" parent="0sexW5r8pKoeQbQU0YzO-44" source="0sexW5r8pKoeQbQU0YzO-45" target="0sexW5r8pKoeQbQU0YzO-46">
          <mxGeometry relative="1" as="geometry" />
        </mxCell>
        <mxCell id="0sexW5r8pKoeQbQU0YzO-48" value="上线" style="rounded=0;whiteSpace=wrap;html=1;fontFamily=Helvetica;fontSize=16;fontColor=#000000;align=center;" vertex="1" parent="0sexW5r8pKoeQbQU0YzO-44">
          <mxGeometry x="419" y="30" width="80" height="40" as="geometry" />
        </mxCell>
        <mxCell id="0sexW5r8pKoeQbQU0YzO-49" style="edgeStyle=orthogonalEdgeStyle;rounded=0;orthogonalLoop=1;jettySize=auto;html=1;fontSize=16;" edge="1" parent="0sexW5r8pKoeQbQU0YzO-44" source="0sexW5r8pKoeQbQU0YzO-46" target="0sexW5r8pKoeQbQU0YzO-48">
          <mxGeometry relative="1" as="geometry">
            <mxPoint x="535" y="60" as="targetPoint" />
          </mxGeometry>
        </mxCell>
        <mxCell id="0sexW5r8pKoeQbQU0YzO-50" value="Y" style="edgeLabel;html=1;align=center;verticalAlign=middle;resizable=0;points=[];fontSize=16;" connectable="0" vertex="1" parent="0sexW5r8pKoeQbQU0YzO-49">
          <mxGeometry x="-0.3529" y="1" relative="1" as="geometry">
            <mxPoint x="-9" y="1" as="offset" />
          </mxGeometry>
        </mxCell>
        <mxCell id="0sexW5r8pKoeQbQU0YzO-51" style="edgeStyle=orthogonalEdgeStyle;rounded=0;orthogonalLoop=1;jettySize=auto;html=1;entryX=0.5;entryY=0;entryDx=0;entryDy=0;fontSize=16;" edge="1" parent="0sexW5r8pKoeQbQU0YzO-31" target="0sexW5r8pKoeQbQU0YzO-42">
          <mxGeometry relative="1" as="geometry">
            <mxPoint x="190" y="90" as="sourcePoint" />
          </mxGeometry>
        </mxCell>
        <mxCell id="0sexW5r8pKoeQbQU0YzO-52" value="&lt;span style=&quot;background-color: rgb(248, 249, 250);&quot;&gt;创建分支&lt;/span&gt;" style="edgeLabel;html=1;align=center;verticalAlign=middle;resizable=0;points=[];fontSize=16;" connectable="0" vertex="1" parent="0sexW5r8pKoeQbQU0YzO-51">
          <mxGeometry x="-0.4237" relative="1" as="geometry">
            <mxPoint as="offset" />
          </mxGeometry>
        </mxCell>
        <mxCell id="0sexW5r8pKoeQbQU0YzO-53" style="edgeStyle=orthogonalEdgeStyle;rounded=0;orthogonalLoop=1;jettySize=auto;html=1;fontSize=16;exitX=0.5;exitY=1;exitDx=0;exitDy=0;" edge="1" parent="0sexW5r8pKoeQbQU0YzO-31" source="0sexW5r8pKoeQbQU0YzO-43" target="0sexW5r8pKoeQbQU0YzO-45">
          <mxGeometry relative="1" as="geometry">
            <mxPoint x="440" y="300" as="targetPoint" />
          </mxGeometry>
        </mxCell>
        <mxCell id="0sexW5r8pKoeQbQU0YzO-54" value="创建或合并到" style="edgeLabel;html=1;align=center;verticalAlign=middle;resizable=0;points=[];fontSize=16;" connectable="0" vertex="1" parent="0sexW5r8pKoeQbQU0YzO-53">
          <mxGeometry x="0.2255" relative="1" as="geometry">
            <mxPoint y="-3" as="offset" />
          </mxGeometry>
        </mxCell>
        <mxCell id="0sexW5r8pKoeQbQU0YzO-55" style="edgeStyle=orthogonalEdgeStyle;rounded=0;orthogonalLoop=1;jettySize=auto;html=1;entryX=0.5;entryY=1;entryDx=0;entryDy=0;exitX=0.5;exitY=1;exitDx=0;exitDy=0;fontSize=16;" edge="1" parent="0sexW5r8pKoeQbQU0YzO-31" source="0sexW5r8pKoeQbQU0YzO-46" target="0sexW5r8pKoeQbQU0YzO-42">
          <mxGeometry relative="1" as="geometry" />
        </mxCell>
        <mxCell id="0sexW5r8pKoeQbQU0YzO-56" value="N" style="edgeLabel;html=1;align=center;verticalAlign=middle;resizable=0;points=[];fontSize=16;" connectable="0" vertex="1" parent="0sexW5r8pKoeQbQU0YzO-55">
          <mxGeometry x="-0.3455" relative="1" as="geometry">
            <mxPoint as="offset" />
          </mxGeometry>
        </mxCell>
        <mxCell id="0sexW5r8pKoeQbQU0YzO-57" style="edgeStyle=orthogonalEdgeStyle;rounded=0;orthogonalLoop=1;jettySize=auto;html=1;exitX=0.5;exitY=0;exitDx=0;exitDy=0;entryX=0.939;entryY=1.021;entryDx=0;entryDy=0;entryPerimeter=0;" edge="1" parent="0sexW5r8pKoeQbQU0YzO-31" source="0sexW5r8pKoeQbQU0YzO-48" target="0sexW5r8pKoeQbQU0YzO-35">
          <mxGeometry relative="1" as="geometry" />
        </mxCell>
      </root>
    </mxGraphModel>
  </diagram>
  <diagram id="eTn2JK1tleEb0GhrLIuL" name="研发流程">
    <mxGraphModel dx="989" dy="-603" grid="1" gridSize="10" guides="1" tooltips="1" connect="1" arrows="1" fold="1" page="1" pageScale="1" pageWidth="827" pageHeight="1169" math="0" shadow="0">
      <root>
        <mxCell id="0" />
        <mxCell id="1" parent="0" />
        <mxCell id="0FeO4mIQgfYYwaEWf6h8-25" value="研发流程" style="swimlane;html=1;childLayout=stackLayout;resizeParent=1;resizeParentMax=0;horizontal=0;startSize=20;horizontalStack=0;" vertex="1" parent="1">
          <mxGeometry x="59" y="1250" width="710" height="400" as="geometry" />
        </mxCell>
        <mxCell id="0FeO4mIQgfYYwaEWf6h8-26" value="产品" style="swimlane;html=1;startSize=20;horizontal=0;" vertex="1" parent="0FeO4mIQgfYYwaEWf6h8-25">
          <mxGeometry x="20" width="690" height="120" as="geometry" />
        </mxCell>
        <mxCell id="0FeO4mIQgfYYwaEWf6h8-27" style="edgeStyle=orthogonalEdgeStyle;rounded=0;orthogonalLoop=1;jettySize=auto;html=1;" edge="1" parent="0FeO4mIQgfYYwaEWf6h8-26" source="0FeO4mIQgfYYwaEWf6h8-28" target="0FeO4mIQgfYYwaEWf6h8-29">
          <mxGeometry relative="1" as="geometry" />
        </mxCell>
        <mxCell id="0FeO4mIQgfYYwaEWf6h8-28" value="提出需求" style="rounded=0;whiteSpace=wrap;html=1;fontFamily=Helvetica;fontSize=12;fontColor=#000000;align=center;" vertex="1" parent="0FeO4mIQgfYYwaEWf6h8-26">
          <mxGeometry x="30" y="10" width="80" height="20" as="geometry" />
        </mxCell>
        <mxCell id="0FeO4mIQgfYYwaEWf6h8-29" value="PRD评审" style="rounded=0;whiteSpace=wrap;html=1;fontFamily=Helvetica;fontSize=12;align=center;fillColor=#fff2cc;strokeColor=#d6b656;" vertex="1" parent="0FeO4mIQgfYYwaEWf6h8-26">
          <mxGeometry x="30" y="80" width="80" height="20" as="geometry" />
        </mxCell>
        <mxCell id="0FeO4mIQgfYYwaEWf6h8-30" value="PRD" style="shape=document;whiteSpace=wrap;html=1;boundedLbl=1;fillColor=#dae8fc;strokeColor=#6c8ebf;" vertex="1" parent="0FeO4mIQgfYYwaEWf6h8-26">
          <mxGeometry x="160" y="10" width="50" height="30" as="geometry" />
        </mxCell>
        <mxCell id="0FeO4mIQgfYYwaEWf6h8-31" value="" style="endArrow=none;dashed=1;html=1;rounded=0;" edge="1" parent="0FeO4mIQgfYYwaEWf6h8-26" source="0FeO4mIQgfYYwaEWf6h8-28" target="0FeO4mIQgfYYwaEWf6h8-30">
          <mxGeometry width="50" height="50" relative="1" as="geometry">
            <mxPoint x="130" y="70" as="sourcePoint" />
            <mxPoint x="180" y="20" as="targetPoint" />
          </mxGeometry>
        </mxCell>
        <mxCell id="0FeO4mIQgfYYwaEWf6h8-32" value="产品验收" style="rounded=0;whiteSpace=wrap;html=1;fontFamily=Helvetica;fontSize=12;fontColor=#000000;align=center;" vertex="1" parent="0FeO4mIQgfYYwaEWf6h8-26">
          <mxGeometry x="550" y="40" width="80" height="20" as="geometry" />
        </mxCell>
        <mxCell id="0FeO4mIQgfYYwaEWf6h8-33" value="开发" style="swimlane;html=1;startSize=20;horizontal=0;" vertex="1" parent="0FeO4mIQgfYYwaEWf6h8-25">
          <mxGeometry x="20" y="120" width="690" height="120" as="geometry" />
        </mxCell>
        <mxCell id="0FeO4mIQgfYYwaEWf6h8-34" value="代码开发" style="rounded=0;whiteSpace=wrap;html=1;fontFamily=Helvetica;fontSize=12;fontColor=#000000;align=center;" vertex="1" parent="0FeO4mIQgfYYwaEWf6h8-33">
          <mxGeometry x="250" y="50" width="80" height="20" as="geometry" />
        </mxCell>
        <mxCell id="0FeO4mIQgfYYwaEWf6h8-35" value="bug修复" style="rounded=0;whiteSpace=wrap;html=1;fontFamily=Helvetica;fontSize=12;fontColor=#000000;align=center;" vertex="1" parent="0FeO4mIQgfYYwaEWf6h8-33">
          <mxGeometry x="480" y="40" width="80" height="60" as="geometry" />
        </mxCell>
        <mxCell id="0FeO4mIQgfYYwaEWf6h8-36" value="项目总结" style="rounded=0;whiteSpace=wrap;html=1;fontFamily=Helvetica;fontSize=12;align=center;fillColor=#fff2cc;strokeColor=#d6b656;" vertex="1" parent="0FeO4mIQgfYYwaEWf6h8-33">
          <mxGeometry x="590" y="70" width="80" height="20" as="geometry" />
        </mxCell>
        <mxCell id="0FeO4mIQgfYYwaEWf6h8-37" value="系统设计" style="rounded=0;whiteSpace=wrap;html=1;fontFamily=Helvetica;fontSize=12;fontColor=#000000;align=center;" vertex="1" parent="0FeO4mIQgfYYwaEWf6h8-33">
          <mxGeometry x="50" y="50" width="80" height="20" as="geometry" />
        </mxCell>
        <mxCell id="0FeO4mIQgfYYwaEWf6h8-38" style="edgeStyle=orthogonalEdgeStyle;rounded=0;orthogonalLoop=1;jettySize=auto;html=1;" edge="1" parent="0FeO4mIQgfYYwaEWf6h8-33" source="0FeO4mIQgfYYwaEWf6h8-39" target="0FeO4mIQgfYYwaEWf6h8-34">
          <mxGeometry relative="1" as="geometry" />
        </mxCell>
        <mxCell id="0FeO4mIQgfYYwaEWf6h8-39" value="ERD评审" style="rounded=0;whiteSpace=wrap;html=1;fontFamily=Helvetica;fontSize=12;align=center;fillColor=#fff2cc;strokeColor=#d6b656;" vertex="1" parent="0FeO4mIQgfYYwaEWf6h8-33">
          <mxGeometry x="150" y="50" width="80" height="20" as="geometry" />
        </mxCell>
        <mxCell id="0FeO4mIQgfYYwaEWf6h8-40" value="" style="edgeStyle=orthogonalEdgeStyle;rounded=0;orthogonalLoop=1;jettySize=auto;html=1;" edge="1" parent="0FeO4mIQgfYYwaEWf6h8-33" source="0FeO4mIQgfYYwaEWf6h8-37" target="0FeO4mIQgfYYwaEWf6h8-39">
          <mxGeometry relative="1" as="geometry" />
        </mxCell>
        <mxCell id="0FeO4mIQgfYYwaEWf6h8-41" value="ERD" style="shape=document;whiteSpace=wrap;html=1;boundedLbl=1;fillColor=#dae8fc;strokeColor=#6c8ebf;" vertex="1" parent="0FeO4mIQgfYYwaEWf6h8-33">
          <mxGeometry x="110" y="90" width="50" height="30" as="geometry" />
        </mxCell>
        <mxCell id="0FeO4mIQgfYYwaEWf6h8-42" value="" style="endArrow=none;dashed=1;html=1;rounded=0;" edge="1" parent="0FeO4mIQgfYYwaEWf6h8-33" source="0FeO4mIQgfYYwaEWf6h8-37" target="0FeO4mIQgfYYwaEWf6h8-41">
          <mxGeometry width="50" height="50" relative="1" as="geometry">
            <mxPoint x="50" y="89.9991304347825" as="sourcePoint" />
            <mxPoint x="100" y="92.17304347826098" as="targetPoint" />
          </mxGeometry>
        </mxCell>
        <mxCell id="0FeO4mIQgfYYwaEWf6h8-43" value="联调" style="rounded=0;whiteSpace=wrap;html=1;fontFamily=Helvetica;fontSize=12;fontColor=#000000;align=center;" vertex="1" parent="0FeO4mIQgfYYwaEWf6h8-33">
          <mxGeometry x="250" y="90" width="80" height="20" as="geometry" />
        </mxCell>
        <mxCell id="0FeO4mIQgfYYwaEWf6h8-44" value="" style="edgeStyle=orthogonalEdgeStyle;rounded=0;orthogonalLoop=1;jettySize=auto;html=1;" edge="1" parent="0FeO4mIQgfYYwaEWf6h8-33" source="0FeO4mIQgfYYwaEWf6h8-34" target="0FeO4mIQgfYYwaEWf6h8-43">
          <mxGeometry relative="1" as="geometry" />
        </mxCell>
        <mxCell id="0FeO4mIQgfYYwaEWf6h8-45" value="发布上线" style="rounded=0;whiteSpace=wrap;html=1;fontFamily=Helvetica;fontSize=12;fontColor=#000000;align=center;" vertex="1" parent="0FeO4mIQgfYYwaEWf6h8-33">
          <mxGeometry x="590" y="10" width="80" height="20" as="geometry" />
        </mxCell>
        <mxCell id="0FeO4mIQgfYYwaEWf6h8-46" value="" style="edgeStyle=orthogonalEdgeStyle;rounded=0;orthogonalLoop=1;jettySize=auto;html=1;" edge="1" parent="0FeO4mIQgfYYwaEWf6h8-33" source="0FeO4mIQgfYYwaEWf6h8-45" target="0FeO4mIQgfYYwaEWf6h8-36">
          <mxGeometry relative="1" as="geometry" />
        </mxCell>
        <mxCell id="0FeO4mIQgfYYwaEWf6h8-47" value="提测单" style="shape=document;whiteSpace=wrap;html=1;boundedLbl=1;fillColor=#dae8fc;strokeColor=#6c8ebf;" vertex="1" parent="0FeO4mIQgfYYwaEWf6h8-33">
          <mxGeometry x="390" y="30" width="54" height="30" as="geometry" />
        </mxCell>
        <mxCell id="0FeO4mIQgfYYwaEWf6h8-48" value="" style="endArrow=none;dashed=1;html=1;rounded=0;" edge="1" parent="0FeO4mIQgfYYwaEWf6h8-33" target="0FeO4mIQgfYYwaEWf6h8-47">
          <mxGeometry width="50" height="50" relative="1" as="geometry">
            <mxPoint x="370" y="140" as="sourcePoint" />
            <mxPoint x="420" y="70" as="targetPoint" />
          </mxGeometry>
        </mxCell>
        <mxCell id="0FeO4mIQgfYYwaEWf6h8-49" value="测试" style="swimlane;html=1;startSize=20;horizontal=0;" vertex="1" parent="0FeO4mIQgfYYwaEWf6h8-25">
          <mxGeometry x="20" y="240" width="690" height="160" as="geometry" />
        </mxCell>
        <mxCell id="0FeO4mIQgfYYwaEWf6h8-50" value="编写测试用例" style="rounded=0;whiteSpace=wrap;html=1;fontFamily=Helvetica;fontSize=12;fontColor=#000000;align=center;" vertex="1" parent="0FeO4mIQgfYYwaEWf6h8-49">
          <mxGeometry x="60" y="75" width="80" height="20" as="geometry" />
        </mxCell>
        <mxCell id="0FeO4mIQgfYYwaEWf6h8-51" value="测试" style="rounded=0;whiteSpace=wrap;html=1;fontFamily=Helvetica;fontSize=12;fontColor=#000000;align=center;" vertex="1" parent="0FeO4mIQgfYYwaEWf6h8-49">
          <mxGeometry x="400" y="40" width="80" height="60" as="geometry" />
        </mxCell>
        <mxCell id="0FeO4mIQgfYYwaEWf6h8-52" value="用例评审" style="rounded=0;whiteSpace=wrap;html=1;fontFamily=Helvetica;fontSize=12;align=center;fillColor=#fff2cc;strokeColor=#d6b656;" vertex="1" parent="0FeO4mIQgfYYwaEWf6h8-49">
          <mxGeometry x="240" y="75" width="80" height="20" as="geometry" />
        </mxCell>
        <mxCell id="0FeO4mIQgfYYwaEWf6h8-53" style="edgeStyle=orthogonalEdgeStyle;rounded=0;orthogonalLoop=1;jettySize=auto;html=1;entryX=0;entryY=0.75;entryDx=0;entryDy=0;" edge="1" parent="0FeO4mIQgfYYwaEWf6h8-49" source="0FeO4mIQgfYYwaEWf6h8-52" target="0FeO4mIQgfYYwaEWf6h8-51">
          <mxGeometry relative="1" as="geometry" />
        </mxCell>
        <mxCell id="0FeO4mIQgfYYwaEWf6h8-54" value="" style="edgeStyle=orthogonalEdgeStyle;rounded=0;orthogonalLoop=1;jettySize=auto;html=1;" edge="1" parent="0FeO4mIQgfYYwaEWf6h8-49" source="0FeO4mIQgfYYwaEWf6h8-50" target="0FeO4mIQgfYYwaEWf6h8-52">
          <mxGeometry relative="1" as="geometry" />
        </mxCell>
        <mxCell id="0FeO4mIQgfYYwaEWf6h8-55" value="测试报告" style="shape=document;whiteSpace=wrap;html=1;boundedLbl=1;fillColor=#dae8fc;strokeColor=#6c8ebf;" vertex="1" parent="0FeO4mIQgfYYwaEWf6h8-49">
          <mxGeometry x="320" y="120" width="54" height="30" as="geometry" />
        </mxCell>
        <mxCell id="0FeO4mIQgfYYwaEWf6h8-56" value="" style="endArrow=none;dashed=1;html=1;rounded=0;" edge="1" parent="0FeO4mIQgfYYwaEWf6h8-49" source="0FeO4mIQgfYYwaEWf6h8-55" target="0FeO4mIQgfYYwaEWf6h8-51">
          <mxGeometry width="50" height="50" relative="1" as="geometry">
            <mxPoint x="390" y="160" as="sourcePoint" />
            <mxPoint x="440" y="110" as="targetPoint" />
          </mxGeometry>
        </mxCell>
        <mxCell id="0FeO4mIQgfYYwaEWf6h8-57" style="edgeStyle=orthogonalEdgeStyle;rounded=0;orthogonalLoop=1;jettySize=auto;html=1;entryX=0;entryY=0.25;entryDx=0;entryDy=0;" edge="1" parent="0FeO4mIQgfYYwaEWf6h8-25" source="0FeO4mIQgfYYwaEWf6h8-43" target="0FeO4mIQgfYYwaEWf6h8-51">
          <mxGeometry relative="1" as="geometry" />
        </mxCell>
        <mxCell id="0FeO4mIQgfYYwaEWf6h8-58" value="提测" style="edgeLabel;html=1;align=center;verticalAlign=middle;resizable=0;points=[];labelBackgroundColor=#FFE599;fontColor=#FF0000;fontStyle=1;fontSize=18;" connectable="0" vertex="1" parent="0FeO4mIQgfYYwaEWf6h8-57">
          <mxGeometry x="-0.6569" y="1" relative="1" as="geometry">
            <mxPoint x="15" y="41" as="offset" />
          </mxGeometry>
        </mxCell>
        <mxCell id="0FeO4mIQgfYYwaEWf6h8-59" style="edgeStyle=orthogonalEdgeStyle;rounded=0;orthogonalLoop=1;jettySize=auto;html=1;exitX=1;exitY=0.5;exitDx=0;exitDy=0;" edge="1" parent="0FeO4mIQgfYYwaEWf6h8-25" source="0FeO4mIQgfYYwaEWf6h8-51" target="0FeO4mIQgfYYwaEWf6h8-35">
          <mxGeometry relative="1" as="geometry">
            <mxPoint x="550" y="210" as="targetPoint" />
          </mxGeometry>
        </mxCell>
        <mxCell id="0FeO4mIQgfYYwaEWf6h8-60" value="发现bug" style="edgeLabel;html=1;align=center;verticalAlign=middle;resizable=0;points=[];" connectable="0" vertex="1" parent="0FeO4mIQgfYYwaEWf6h8-59">
          <mxGeometry x="0.0152" relative="1" as="geometry">
            <mxPoint y="-7" as="offset" />
          </mxGeometry>
        </mxCell>
        <mxCell id="0FeO4mIQgfYYwaEWf6h8-61" style="edgeStyle=orthogonalEdgeStyle;rounded=0;orthogonalLoop=1;jettySize=auto;html=1;entryX=0.75;entryY=0;entryDx=0;entryDy=0;exitX=0;exitY=0.5;exitDx=0;exitDy=0;" edge="1" parent="0FeO4mIQgfYYwaEWf6h8-25" source="0FeO4mIQgfYYwaEWf6h8-35" target="0FeO4mIQgfYYwaEWf6h8-51">
          <mxGeometry relative="1" as="geometry" />
        </mxCell>
        <mxCell id="0FeO4mIQgfYYwaEWf6h8-62" value="提交测试" style="edgeLabel;html=1;align=center;verticalAlign=middle;resizable=0;points=[];" connectable="0" vertex="1" parent="0FeO4mIQgfYYwaEWf6h8-61">
          <mxGeometry relative="1" as="geometry">
            <mxPoint as="offset" />
          </mxGeometry>
        </mxCell>
        <mxCell id="0FeO4mIQgfYYwaEWf6h8-63" style="edgeStyle=orthogonalEdgeStyle;rounded=0;orthogonalLoop=1;jettySize=auto;html=1;" edge="1" parent="0FeO4mIQgfYYwaEWf6h8-25" source="0FeO4mIQgfYYwaEWf6h8-29" target="0FeO4mIQgfYYwaEWf6h8-37">
          <mxGeometry relative="1" as="geometry">
            <Array as="points">
              <mxPoint x="90" y="140" />
              <mxPoint x="110" y="140" />
            </Array>
          </mxGeometry>
        </mxCell>
        <mxCell id="0FeO4mIQgfYYwaEWf6h8-64" style="edgeStyle=orthogonalEdgeStyle;rounded=0;orthogonalLoop=1;jettySize=auto;html=1;entryX=0;entryY=0.5;entryDx=0;entryDy=0;" edge="1" parent="0FeO4mIQgfYYwaEWf6h8-25" source="0FeO4mIQgfYYwaEWf6h8-29" target="0FeO4mIQgfYYwaEWf6h8-50">
          <mxGeometry relative="1" as="geometry">
            <Array as="points">
              <mxPoint x="90" y="140" />
              <mxPoint x="60" y="140" />
              <mxPoint x="60" y="325" />
            </Array>
          </mxGeometry>
        </mxCell>
        <mxCell id="0FeO4mIQgfYYwaEWf6h8-65" value="" style="edgeStyle=orthogonalEdgeStyle;rounded=0;orthogonalLoop=1;jettySize=auto;html=1;exitX=0.5;exitY=1;exitDx=0;exitDy=0;entryX=0.25;entryY=1;entryDx=0;entryDy=0;" edge="1" parent="0FeO4mIQgfYYwaEWf6h8-25" source="0FeO4mIQgfYYwaEWf6h8-51" target="0FeO4mIQgfYYwaEWf6h8-32">
          <mxGeometry relative="1" as="geometry" />
        </mxCell>
        <mxCell id="0FeO4mIQgfYYwaEWf6h8-66" value="测试通过" style="edgeLabel;html=1;align=center;verticalAlign=middle;resizable=0;points=[];" connectable="0" vertex="1" parent="0FeO4mIQgfYYwaEWf6h8-65">
          <mxGeometry x="-0.3667" relative="1" as="geometry">
            <mxPoint as="offset" />
          </mxGeometry>
        </mxCell>
        <mxCell id="0FeO4mIQgfYYwaEWf6h8-67" style="edgeStyle=orthogonalEdgeStyle;rounded=0;orthogonalLoop=1;jettySize=auto;html=1;exitX=0.75;exitY=1;exitDx=0;exitDy=0;" edge="1" parent="0FeO4mIQgfYYwaEWf6h8-25" source="0FeO4mIQgfYYwaEWf6h8-32" target="0FeO4mIQgfYYwaEWf6h8-45">
          <mxGeometry relative="1" as="geometry" />
        </mxCell>
      </root>
    </mxGraphModel>
  </diagram>
  <diagram id="9gXt2XN6bQIzCs0DacUA" name="代码质量检查">
    <mxGraphModel dx="1434" dy="854" grid="1" gridSize="10" guides="1" tooltips="1" connect="1" arrows="1" fold="1" page="1" pageScale="1" pageWidth="827" pageHeight="1169" math="0" shadow="0">
      <root>
        <mxCell id="0" />
        <mxCell id="1" parent="0" />
        <mxCell id="cd94JxSZxZyZdZkdjCbR-1" value="代码质量检测" style="swimlane;html=1;childLayout=stackLayout;resizeParent=1;resizeParentMax=0;horizontal=0;startSize=20;horizontalStack=0;fontSize=16;" parent="1" vertex="1">
          <mxGeometry x="20" y="20" width="600" height="320" as="geometry" />
        </mxCell>
        <mxCell id="cd94JxSZxZyZdZkdjCbR-12" value="代码仓库" style="swimlane;html=1;startSize=20;horizontal=0;fontSize=16;" parent="cd94JxSZxZyZdZkdjCbR-1" vertex="1">
          <mxGeometry x="20" width="580" height="100" as="geometry" />
        </mxCell>
        <mxCell id="cd94JxSZxZyZdZkdjCbR-36" style="edgeStyle=orthogonalEdgeStyle;rounded=0;orthogonalLoop=1;jettySize=auto;html=1;" parent="cd94JxSZxZyZdZkdjCbR-12" source="cd94JxSZxZyZdZkdjCbR-15" target="cd94JxSZxZyZdZkdjCbR-35" edge="1">
          <mxGeometry relative="1" as="geometry" />
        </mxCell>
        <mxCell id="cd94JxSZxZyZdZkdjCbR-15" value="代码仓库调用钩子程序&lt;br&gt;检查代码质量" style="rounded=0;whiteSpace=wrap;html=1;fontFamily=Helvetica;fontSize=16;fontColor=#000000;align=center;" parent="cd94JxSZxZyZdZkdjCbR-12" vertex="1">
          <mxGeometry x="104" y="20" width="170" height="60" as="geometry" />
        </mxCell>
        <mxCell id="cd94JxSZxZyZdZkdjCbR-39" value="" style="edgeStyle=orthogonalEdgeStyle;rounded=0;orthogonalLoop=1;jettySize=auto;html=1;" parent="cd94JxSZxZyZdZkdjCbR-12" source="cd94JxSZxZyZdZkdjCbR-35" target="cd94JxSZxZyZdZkdjCbR-38" edge="1">
          <mxGeometry relative="1" as="geometry" />
        </mxCell>
        <mxCell id="cd94JxSZxZyZdZkdjCbR-40" value="Y" style="edgeLabel;html=1;align=center;verticalAlign=middle;resizable=0;points=[];fontSize=16;" parent="cd94JxSZxZyZdZkdjCbR-39" vertex="1" connectable="0">
          <mxGeometry x="-0.1391" y="-1" relative="1" as="geometry">
            <mxPoint as="offset" />
          </mxGeometry>
        </mxCell>
        <mxCell id="cd94JxSZxZyZdZkdjCbR-35" value="符合规范" style="rhombus;whiteSpace=wrap;html=1;fontColor=#000000;rounded=0;fontSize=16;" parent="cd94JxSZxZyZdZkdjCbR-12" vertex="1">
          <mxGeometry x="313" y="10" width="80" height="80" as="geometry" />
        </mxCell>
        <mxCell id="cd94JxSZxZyZdZkdjCbR-38" value="写入仓库" style="whiteSpace=wrap;html=1;fontSize=16;fontColor=#000000;rounded=0;" parent="cd94JxSZxZyZdZkdjCbR-12" vertex="1">
          <mxGeometry x="450" y="20" width="120" height="60" as="geometry" />
        </mxCell>
        <mxCell id="cd94JxSZxZyZdZkdjCbR-31" style="edgeStyle=orthogonalEdgeStyle;rounded=0;orthogonalLoop=1;jettySize=auto;html=1;fontSize=16;" parent="cd94JxSZxZyZdZkdjCbR-1" source="cd94JxSZxZyZdZkdjCbR-22" target="cd94JxSZxZyZdZkdjCbR-15" edge="1">
          <mxGeometry relative="1" as="geometry">
            <mxPoint x="555" y="90" as="targetPoint" />
          </mxGeometry>
        </mxCell>
        <mxCell id="cd94JxSZxZyZdZkdjCbR-42" style="edgeStyle=orthogonalEdgeStyle;rounded=0;orthogonalLoop=1;jettySize=auto;html=1;entryX=1;entryY=0.5;entryDx=0;entryDy=0;exitX=0.5;exitY=1;exitDx=0;exitDy=0;" parent="cd94JxSZxZyZdZkdjCbR-1" source="cd94JxSZxZyZdZkdjCbR-35" target="cd94JxSZxZyZdZkdjCbR-41" edge="1">
          <mxGeometry relative="1" as="geometry">
            <mxPoint x="470" y="130" as="sourcePoint" />
          </mxGeometry>
        </mxCell>
        <mxCell id="cd94JxSZxZyZdZkdjCbR-43" value="N" style="edgeLabel;html=1;align=center;verticalAlign=middle;resizable=0;points=[];fontSize=16;" parent="cd94JxSZxZyZdZkdjCbR-42" vertex="1" connectable="0">
          <mxGeometry x="-0.1688" y="-2" relative="1" as="geometry">
            <mxPoint as="offset" />
          </mxGeometry>
        </mxCell>
        <mxCell id="cd94JxSZxZyZdZkdjCbR-16" value="本地" style="swimlane;html=1;startSize=20;horizontal=0;fontSize=16;" parent="cd94JxSZxZyZdZkdjCbR-1" vertex="1">
          <mxGeometry x="20" y="100" width="580" height="220" as="geometry" />
        </mxCell>
        <mxCell id="cd94JxSZxZyZdZkdjCbR-17" value="编写代码" style="rounded=0;whiteSpace=wrap;html=1;fontFamily=Helvetica;fontSize=16;fontColor=#000000;align=center;" parent="cd94JxSZxZyZdZkdjCbR-16" vertex="1">
          <mxGeometry x="30" y="50" width="90" height="30" as="geometry" />
        </mxCell>
        <mxCell id="cd94JxSZxZyZdZkdjCbR-18" value="符合规范" style="rhombus;whiteSpace=wrap;html=1;fontColor=#000000;rounded=0;fontSize=16;" parent="cd94JxSZxZyZdZkdjCbR-16" vertex="1">
          <mxGeometry x="149" y="100" width="80" height="80" as="geometry" />
        </mxCell>
        <mxCell id="cd94JxSZxZyZdZkdjCbR-19" value="" style="edgeStyle=orthogonalEdgeStyle;rounded=0;orthogonalLoop=1;jettySize=auto;html=1;fontSize=16;" parent="cd94JxSZxZyZdZkdjCbR-16" source="cd94JxSZxZyZdZkdjCbR-17" target="cd94JxSZxZyZdZkdjCbR-33" edge="1">
          <mxGeometry relative="1" as="geometry" />
        </mxCell>
        <mxCell id="cd94JxSZxZyZdZkdjCbR-20" style="edgeStyle=orthogonalEdgeStyle;rounded=0;orthogonalLoop=1;jettySize=auto;html=1;exitX=1;exitY=0.5;exitDx=0;exitDy=0;fontSize=16;entryX=0.5;entryY=0;entryDx=0;entryDy=0;" parent="cd94JxSZxZyZdZkdjCbR-16" source="cd94JxSZxZyZdZkdjCbR-18" target="cd94JxSZxZyZdZkdjCbR-41" edge="1">
          <mxGeometry relative="1" as="geometry">
            <mxPoint x="470" y="130" as="targetPoint" />
          </mxGeometry>
        </mxCell>
        <mxCell id="cd94JxSZxZyZdZkdjCbR-21" value="N" style="edgeLabel;html=1;align=center;verticalAlign=middle;resizable=0;points=[];fontSize=16;" parent="cd94JxSZxZyZdZkdjCbR-20" connectable="0" vertex="1">
          <mxGeometry x="-0.3455" relative="1" as="geometry">
            <mxPoint as="offset" />
          </mxGeometry>
        </mxCell>
        <mxCell id="cd94JxSZxZyZdZkdjCbR-22" value="push到仓库" style="rounded=0;whiteSpace=wrap;html=1;fontFamily=Helvetica;fontSize=16;fontColor=#000000;align=center;" parent="cd94JxSZxZyZdZkdjCbR-16" vertex="1">
          <mxGeometry x="141.5" y="10" width="95" height="40" as="geometry" />
        </mxCell>
        <mxCell id="cd94JxSZxZyZdZkdjCbR-23" style="edgeStyle=orthogonalEdgeStyle;rounded=0;orthogonalLoop=1;jettySize=auto;html=1;fontSize=16;exitX=0.5;exitY=0;exitDx=0;exitDy=0;" parent="cd94JxSZxZyZdZkdjCbR-16" source="cd94JxSZxZyZdZkdjCbR-18" target="cd94JxSZxZyZdZkdjCbR-22" edge="1">
          <mxGeometry relative="1" as="geometry">
            <mxPoint x="535" y="60" as="targetPoint" />
          </mxGeometry>
        </mxCell>
        <mxCell id="cd94JxSZxZyZdZkdjCbR-24" value="Y" style="edgeLabel;html=1;align=center;verticalAlign=middle;resizable=0;points=[];fontSize=16;" parent="cd94JxSZxZyZdZkdjCbR-23" connectable="0" vertex="1">
          <mxGeometry x="-0.3529" y="1" relative="1" as="geometry">
            <mxPoint x="1" y="-7" as="offset" />
          </mxGeometry>
        </mxCell>
        <mxCell id="cd94JxSZxZyZdZkdjCbR-34" style="edgeStyle=orthogonalEdgeStyle;rounded=0;orthogonalLoop=1;jettySize=auto;html=1;" parent="cd94JxSZxZyZdZkdjCbR-16" source="cd94JxSZxZyZdZkdjCbR-33" target="cd94JxSZxZyZdZkdjCbR-18" edge="1">
          <mxGeometry relative="1" as="geometry" />
        </mxCell>
        <mxCell id="cd94JxSZxZyZdZkdjCbR-33" value="SonarLint&lt;div&gt;插件检查&lt;/div&gt;" style="rounded=0;whiteSpace=wrap;html=1;fontFamily=Helvetica;fontSize=16;fontColor=#000000;align=center;" parent="cd94JxSZxZyZdZkdjCbR-16" vertex="1">
          <mxGeometry x="30" y="110" width="90" height="60" as="geometry" />
        </mxCell>
        <mxCell id="cd94JxSZxZyZdZkdjCbR-44" style="edgeStyle=orthogonalEdgeStyle;rounded=0;orthogonalLoop=1;jettySize=auto;html=1;entryX=0.5;entryY=1;entryDx=0;entryDy=0;" parent="cd94JxSZxZyZdZkdjCbR-16" source="cd94JxSZxZyZdZkdjCbR-41" target="cd94JxSZxZyZdZkdjCbR-33" edge="1">
          <mxGeometry relative="1" as="geometry" />
        </mxCell>
        <mxCell id="cd94JxSZxZyZdZkdjCbR-41" value="修改代码" style="rounded=0;whiteSpace=wrap;html=1;fontFamily=Helvetica;fontSize=16;fontColor=#000000;align=center;" parent="cd94JxSZxZyZdZkdjCbR-16" vertex="1">
          <mxGeometry x="233" y="170" width="95" height="40" as="geometry" />
        </mxCell>
      </root>
    </mxGraphModel>
  </diagram>
  <diagram id="9T18uXvPuWksy_6vux2T" name="第 4 页">
    <mxGraphModel grid="1" page="1" gridSize="10" guides="1" tooltips="1" connect="1" arrows="1" fold="1" pageScale="1" pageWidth="827" pageHeight="1169" math="0" shadow="0">
      <root>
        <mxCell id="0" />
        <mxCell id="1" parent="0" />
      </root>
    </mxGraphModel>
  </diagram>
</mxfile>
